<?xml version="1.0" encoding="utf-8"?>
<!-- Generator: Adobe Illustrator 25.0.1, SVG Export Plug-In . SVG Version: 6.00 Build 0)  -->
<svg version="1.1" id="Layer_1" xmlns="http://www.w3.org/2000/svg" xmlns:xlink="http://www.w3.org/1999/xlink" x="0px" y="0px"
	 viewBox="0 0 529.7 123.6" style="enable-background:new 0 0 529.7 123.6;" xml:space="preserve">
<style type="text/css">
	.st0{fill:#FFFFFF;}
	.st1{fill:url(#SVGID_1_);}
	.st2{fill:url(#SVGID_2_);}
	.st3{fill:url(#SVGID_3_);}
	.st4{fill:url(#SVGID_4_);}
	.st5{fill:url(#SVGID_5_);}
	.st6{fill:url(#SVGID_6_);}
</style>
<g id="Layer_2_1_">
	<g id="Layer_1-2">
		<path class="st0" d="M187,79.9c-0.5-0.7-1.1-1.3-1.8-1.8c-1.2-0.9-2.6-1.3-4.1-1.3c-4,0.1-7.2,3.6-7.1,7.6
			c0.1,3.8,3.2,6.9,7.1,7.1c1.6,0,3.2-0.5,4.5-1.4c1.1-0.8,2-2.1,2.3-3.5h-8.4V84h11.9c0,1.5-0.3,3-0.9,4.3
			c-1.8,3.6-5.4,5.8-9.4,5.8c-5.6,0-10.1-4.5-10.1-10s4.5-10.1,10-10.1c0,0,0,0,0,0c4,0,7.6,2.3,9.3,5.9H187z"/>
		<path class="st0" d="M199.5,74.4h10.8v2.7h-7.8v5.5h7.6v2.7h-7.6V91h7.8v2.7h-10.8V74.4z"/>
		<path class="st0" d="M231.7,89.1l-0.1-14.7h3v19.4h-2.8L221.7,79l0.1,14.8h-3V74.4h2.9L231.7,89.1z"/>
		<path class="st0" d="M241.9,84.2c-0.1-5.6,4.3-10.2,9.9-10.3c5.6-0.1,10.2,4.3,10.3,9.9c0.1,5.6-4.3,10.2-9.9,10.3
			c-0.1,0-0.2,0-0.2,0c-5.5,0.1-10-4.3-10.1-9.8C241.9,84.3,241.9,84.3,241.9,84.2z M244.9,84.1c0.1,3.9,3.4,7,7.3,6.8
			s7-3.4,6.8-7.3c-0.1-3.8-3.3-6.9-7.1-6.8c-3.9,0-7.1,3.2-7.1,7.1C244.9,84,244.9,84,244.9,84.1L244.9,84.1z"/>
		<path class="st0" d="M269.3,93.8V74.4h4.2l6,15l6-15h4.2v19.4h-2.8l0.1-16.3l-6.4,16.3h-2l-6.4-16.3l0.1,16.3H269.3z"/>
		<path class="st0" d="M298.7,74.4h3.1v19.4h-3.1V74.4z"/>
		<path class="st0" d="M329.2,87.9c-1.4,3.8-5.1,6.3-9.2,6.2c-5.6,0-10.1-4.5-10.1-10c0-5.6,4.5-10.1,10-10.1c0,0,0,0,0,0
			c4.1,0,7.8,2.5,9.2,6.4H326c-1.2-2.2-3.5-3.6-6-3.6c-4,0.1-7.2,3.6-7.1,7.6c0.1,3.8,3.2,6.9,7.1,7.1c2.5,0,4.8-1.4,6-3.5
			L329.2,87.9z"/>
		<path class="st0" d="M339.3,88c0.2,2.9,2.2,3.5,3.3,3.5c1.7,0,3.2-1.4,3.2-3.1c0-2.1-1.8-2.6-4.3-3.6c-1.5-0.5-4.9-1.6-4.9-5.3
			s3.1-5.6,6.1-5.6c2.5,0,5.6,1.4,5.8,5.3h-3c-0.2-1-0.7-2.7-2.9-2.7c-1.5-0.1-2.8,1.1-2.9,2.6c0,0,0,0.1,0,0.1
			c0,1.9,1.4,2.4,4.6,3.5c2.4,1,4.6,2.2,4.6,5.4s-2.1,5.9-6.2,5.9c-3.8,0-6.3-2.4-6.4-6.1L339.3,88z"/>
		<path class="st0" d="M174.8,46.5c0.3,3.5,2.7,4.2,4,4.2c2.1,0,3.9-1.6,3.9-3.8c0-2.6-2.2-3.2-5.3-4.3c-1.9-0.6-6-2-6-6.4
			s3.7-6.8,7.4-6.8c3,0,6.8,1.7,7.1,6.5h-3.7c-0.3-1.3-0.8-3.3-3.5-3.3c-1.9-0.1-3.5,1.3-3.6,3.2c0,0,0,0.1,0,0.1
			c0,2.3,1.8,2.9,5.6,4.3c2.9,1.2,5.7,2.8,5.7,6.6s-2.6,7.1-7.6,7.1c-4.7,0-7.7-2.9-7.8-7.4L174.8,46.5z"/>
		<path class="st0" d="M216.9,29.9h3.8v23.6h-3.8V29.9z"/>
		<path class="st0" d="M271.7,47.9l-0.1-18h3.6v23.6h-3.4l-12.4-18l0.1,18h-3.7V29.9h3.5L271.7,47.9z"/>
		<path class="st0" d="M326.1,36.6c-0.6-0.9-1.3-1.6-2.2-2.2c-1.5-1.1-3.2-1.6-5-1.6c-4.7,0-8.6,3.8-8.6,8.5c0,0.1,0,0.2,0,0.4
			c-0.2,4.7,3.4,8.8,8.2,9c0.2,0,0.3,0,0.5,0c2,0,3.9-0.6,5.5-1.8c1.4-1,2.4-2.5,2.8-4.2H317v-3.1h14.5c0,1.8-0.3,3.6-1,5.3
			c-2.2,4.4-6.6,7.1-11.5,7c-6.8,0-12.2-5.5-12.2-12.2s5.5-12.2,12.2-12.2c4.9-0.1,9.3,2.7,11.3,7.2L326.1,36.6z"/>
		<path class="st0" d="M367.4,29.9v14.7c-0.1,1.4,0.2,2.9,0.9,4.1c0.8,1.2,2.2,1.9,3.6,1.9c1.4,0.1,2.8-0.6,3.6-1.8
			c0.7-1.3,1-2.7,0.9-4.2V29.9h3.7v14.7c0,3.1-0.5,5.5-2.5,7.2c-1.5,1.4-3.5,2.1-5.6,2.1c-2.1,0.1-4.1-0.6-5.7-2
			c-2.3-2.1-2.6-4.4-2.6-7.3V29.9H367.4z"/>
		<path class="st0" d="M417.8,29.9h3.8v20.3h8.3v3.3h-12.1V29.9z"/>
		<path class="st0" d="M463.4,53.5h-4.1l9.7-23.6h3.4l9.5,23.6h-4.1l-2.2-5.6h-10.1L463.4,53.5z M470.6,34.3l-4,10.6h8L470.6,34.3z"
			/>
		<path class="st0" d="M513,29.9h6.7c3.7,0,5.6,0.5,6.9,1.4c2,1.5,3.2,3.9,3.1,6.4c0,1.6-0.5,3.2-1.3,4.5c-1.1,1.5-2.7,2.4-4.6,2.6
			l5.6,8.8h-4l-6.5-10.7h0.8c1.6,0,3.6-0.1,4.7-1c1.1-1,1.7-2.4,1.6-3.9c0-1.6-0.7-3.1-2-4c-1.2-0.6-2.6-0.9-4-0.8h-3.2v20.3h-3.8
			L513,29.9z"/>

			<linearGradient id="SVGID_1_" gradientUnits="userSpaceOnUse" x1="0.8772" y1="72.3518" x2="103.4372" y2="72.3518" gradientTransform="matrix(1 0 0 -1 0 125.5824)">
			<stop  offset="1.000000e-02" style="stop-color:#FFFFFF"/>
			<stop  offset="0.8" style="stop-color:#FFFFFF;stop-opacity:5.000000e-02"/>
			<stop  offset="1" style="stop-color:#FFFFFF;stop-opacity:0"/>
		</linearGradient>
		<path class="st1" d="M3,61.8C3,29.3,29.4,3,61.9,3c14.9,0,29.2,5.6,40.1,15.8l1.5-1.6C79.2-6.3,40.6-5.6,17.2,18.6
			s-22.8,62.8,1.4,86.3c0.6,0.6,1.2,1.1,1.8,1.6l1.5-1.6C9.8,93.7,3,78.1,3,61.8z"/>

			<linearGradient id="SVGID_2_" gradientUnits="userSpaceOnUse" x1="10.1595" y1="70.72" x2="97.1272" y2="70.72" gradientTransform="matrix(1 0 0 -1 0 125.5824)">
			<stop  offset="1.000000e-02" style="stop-color:#FFFFFF"/>
			<stop  offset="0.8" style="stop-color:#FFFFFF;stop-opacity:5.000000e-02"/>
			<stop  offset="1" style="stop-color:#FFFFFF;stop-opacity:0"/>
		</linearGradient>
		<path class="st2" d="M12.3,61.8c0-27.4,22.1-49.5,49.5-49.6c12.5,0,24.6,4.7,33.8,13.3l1.5-1.6C76.2,4.5,43.5,5.6,24,26.6
			S5.7,80.2,26.6,99.7l1.5-1.6C18,88.7,12.3,75.6,12.3,61.8z"/>

			<linearGradient id="SVGID_3_" gradientUnits="userSpaceOnUse" x1="20.6472" y1="69.3924" x2="89.9772" y2="69.3924" gradientTransform="matrix(1 0 0 -1 0 125.5824)">
			<stop  offset="1.000000e-02" style="stop-color:#FFFFFF"/>
			<stop  offset="0.8" style="stop-color:#FFFFFF;stop-opacity:5.000000e-02"/>
			<stop  offset="1" style="stop-color:#FFFFFF;stop-opacity:0"/>
		</linearGradient>
		<path class="st3" d="M22.8,61.8c-0.1-21.5,17.3-39.1,38.9-39.1c10,0,19.5,3.7,26.8,10.6l1.5-1.6C73.4,16,47.3,16.8,31.7,33.4
			S16.9,76,33.4,91.7c0.1,0.1,0.2,0.2,0.3,0.3l1.5-1.6C27.3,83,22.8,72.6,22.8,61.8z"/>

			<linearGradient id="SVGID_4_" gradientUnits="userSpaceOnUse" x1="20.3272" y1="55.2406" x2="122.8872" y2="55.2406" gradientTransform="matrix(1 0 0 -1 0 125.5824)">
			<stop  offset="0" style="stop-color:#FFFFFF;stop-opacity:0"/>
			<stop  offset="0.2" style="stop-color:#FFFFFF;stop-opacity:5.000000e-02"/>
			<stop  offset="0.99" style="stop-color:#FFFFFF"/>
		</linearGradient>
		<path class="st4" d="M103.4,17.2l-1.5,1.6c24.4,21.4,26.9,58.5,5.5,83s-58.5,26.9-83,5.5c-0.9-0.8-1.8-1.6-2.6-2.5l-1.5,1.6
			c24.2,23.4,62.8,22.8,86.3-1.4s22.8-62.8-1.4-86.3C104.6,18.2,104,17.6,103.4,17.2L103.4,17.2z"/>

			<linearGradient id="SVGID_5_" gradientUnits="userSpaceOnUse" x1="26.6372" y1="56.8356" x2="113.6372" y2="56.8356" gradientTransform="matrix(1 0 0 -1 0 125.5824)">
			<stop  offset="0" style="stop-color:#FFFFFF;stop-opacity:0"/>
			<stop  offset="0.2" style="stop-color:#FFFFFF;stop-opacity:5.000000e-02"/>
			<stop  offset="0.99" style="stop-color:#FFFFFF"/>
		</linearGradient>
		<path class="st5" d="M113.6,61.8c0-14.4-6-28.1-16.5-37.8l-1.5,1.6c20,18.6,21.1,50,2.5,70s-50,21.1-70,2.5l-1.5,1.6
			c20.9,19.5,53.6,18.3,73.1-2.5C108.7,87.5,113.6,74.9,113.6,61.8L113.6,61.8z"/>

			<linearGradient id="SVGID_6_" gradientUnits="userSpaceOnUse" x1="33.7872" y1="58.2567" x2="103.1172" y2="58.2567" gradientTransform="matrix(1 0 0 -1 0 125.5824)">
			<stop  offset="0" style="stop-color:#FFFFFF;stop-opacity:0"/>
			<stop  offset="0.2" style="stop-color:#FFFFFF;stop-opacity:5.000000e-02"/>
			<stop  offset="0.99" style="stop-color:#FFFFFF"/>
		</linearGradient>
		<path class="st6" d="M103.1,61.8c0-11.4-4.8-22.4-13.1-30.2l-1.5,1.6c15.8,14.7,16.7,39.4,2,55.2s-39.4,16.7-55.2,2l0,0L33.8,92
			c16.7,15.5,42.8,14.6,58.3-2.1C99.2,82.3,103.1,72.2,103.1,61.8z"/>
	</g>
</g>
</svg>
