<?xml version="1.0" encoding="UTF-8"?>
<svg id="Layer_3" xmlns="http://www.w3.org/2000/svg" width="191.573" height="37" xmlns:xlink="http://www.w3.org/1999/xlink" version="1.1" viewBox="0 0 191.573 37">
  <!-- Generator: Adobe Illustrator 29.3.1, SVG Export Plug-In . SVG Version: 2.1.0 Build 151)  -->
  <defs>
    <linearGradient id="linear-gradient" x1="695.575" y1="141.059" x2="695.575" y2="105.042" gradientTransform="translate(445.173 592.758) rotate(-136.5)" gradientUnits="userSpaceOnUse">
      <stop offset="0" stop-color="#fff"/>
      <stop offset="1" stop-color="#fff" stop-opacity="0"/>
    </linearGradient>
    <linearGradient id="linear-gradient1" x1="697.401" y1="137.405" x2="697.401" y2="108.696" xlink:href="#linear-gradient"/>
    <linearGradient id="linear-gradient2" x1="699.228" y1="133.751" x2="699.228" y2="112.35" xlink:href="#linear-gradient"/>
    <linearGradient id="linear-gradient3" x1="713.583" y1="105.042" x2="713.583" y2="141.059" xlink:href="#linear-gradient"/>
    <linearGradient id="linear-gradient4" x1="711.756" y1="108.696" x2="711.756" y2="137.405" xlink:href="#linear-gradient"/>
    <linearGradient id="linear-gradient5" x1="709.929" y1="112.35" x2="709.929" y2="133.751" xlink:href="#linear-gradient"/>
  </defs>
  <g>
    <g>
      <path d="M31.188,5.437c7.203,6.835,7.502,18.256.667,25.459-6.835,7.203-18.256,7.502-25.459.667l.719-.757c6.785,6.439,17.544,6.157,23.983-.628s6.157-17.544-.628-23.983l.719-.757Z" fill="url(#linear-gradient)"/>
      <path d="M28.673,8.088c5.741,5.448,5.98,14.552.531,20.293-5.448,5.741-14.552,5.98-20.293.531l.719-.757c5.324,5.052,13.765,4.831,18.817-.493s4.831-13.765-.493-18.817l.719-.757Z" fill="url(#linear-gradient1)"/>
      <path d="M26.158,10.738c4.28,4.062,4.458,10.848.396,15.128s-10.848,4.458-15.128.396l.719-.757c3.862,3.665,9.987,3.505,13.652-.357s3.505-9.987-.357-13.652l.719-.757Z" fill="url(#linear-gradient2)"/>
    </g>
    <g>
      <path d="M31.188,5.437l-.719.757C23.684-.245,12.926.037,6.486,6.822S.329,24.366,7.114,30.806l-.719.757C-.807,24.728-1.106,13.307,5.729,6.104c6.835-7.203,18.256-7.502,25.459-.667Z" fill="url(#linear-gradient3)"/>
      <path d="M28.673,8.088l-.719.757c-5.324-5.052-13.765-4.831-18.817.493s-4.831,13.765.493,18.817l-.719.757c-5.741-5.448-5.98-14.552-.531-20.293s14.552-5.98,20.293-.531Z" fill="url(#linear-gradient4)"/>
      <path d="M26.158,10.738l-.719.757c-3.862-3.665-9.987-3.505-13.652.357s-3.505,9.987.357,13.652l-.719.757c-4.28-4.062-4.458-10.848-.396-15.128s10.848-4.458,15.128-.396Z" fill="url(#linear-gradient5)"/>
    </g>
  </g>
  <g id="Layer_21" data-name="Layer_2">
    <g id="Layer_1-2">
      <path d="M54.155,25.729c-.195-.281-.435-.528-.71-.73-.472-.344-1.043-.528-1.628-.523-1.614.06-2.874,1.416-2.814,3.03.057,1.53,1.284,2.758,2.814,2.814.643.012,1.272-.19,1.787-.574.46-.336.786-.826.918-1.38h-3.327v-1.001h4.755c.004.596-.113,1.186-.343,1.735-.708,1.428-2.172,2.323-3.766,2.302-2.212,0-4.005-1.793-4.005-4.005s1.793-4.005,4.005-4.005c1.586-.017,3.035.898,3.702,2.338h-1.388Z" fill="#fff"/>
      <path d="M59.109,23.539h4.32v1.085h-3.088v2.19h3.048v1.073h-3.048v2.286h3.088v1.085h-4.32v-7.719Z" fill="#fff"/>
      <path d="M71.963,29.411l-.02-5.872h1.197v7.719h-1.125l-4.045-5.884v5.884h-1.197v-7.719h1.157l4.033,5.872Z" fill="#fff"/>
      <path d="M76.008,27.441c-.044-2.231,1.729-4.076,3.961-4.12,2.231-.044,4.076,1.729,4.12,3.961.044,2.231-1.729,4.076-3.961,4.12-.025,0-.05,0-.075,0-2.188.035-3.989-1.709-4.025-3.897,0-.021,0-.043,0-.064h-.02ZM77.229,27.397c.055,1.557,1.362,2.774,2.918,2.719,1.557-.055,2.774-1.362,2.719-2.918-.054-1.516-1.296-2.718-2.813-2.721-1.566.006-2.832,1.281-2.826,2.847,0,.024,0,.049.001.073Z" fill="#fff"/>
      <path d="M86.954,31.258v-7.719h1.691l2.394,5.984,2.37-5.984h1.679v7.719h-1.137l.032-6.51-2.557,6.51h-.798l-2.557-6.51.032,6.51h-1.149Z" fill="#fff"/>
      <path d="M98.671,23.539h1.229v7.719h-1.229v-7.719Z" fill="#fff"/>
      <path d="M110.846,28.913c-.568,1.525-2.039,2.524-3.666,2.489-2.212,0-4.005-1.793-4.005-4.005s1.793-4.005,4.005-4.005c1.636-.004,3.103,1.007,3.682,2.537h-1.289c-.47-.887-1.39-1.445-2.394-1.452-1.614.06-2.874,1.416-2.814,3.03.057,1.53,1.284,2.758,2.814,2.814.991-.011,1.902-.547,2.394-1.408h1.273Z" fill="#fff"/>
      <path d="M114.859,28.972c.084,1.157.898,1.388,1.304,1.388.694.011,1.267-.539,1.285-1.233,0-.854-.73-1.053-1.723-1.416-.602-.199-1.947-.646-1.947-2.098s1.197-2.222,2.429-2.222c.989,0,2.23.543,2.326,2.13h-1.197c-.084-.399-.271-1.085-1.161-1.085-.609-.035-1.132.43-1.167,1.039,0,.015-.001.031-.002.046,0,.75.574.937,1.815,1.396.961.399,1.859.898,1.859,2.15s-.846,2.334-2.493,2.334c-1.532,0-2.513-.937-2.537-2.429h1.209Z" fill="#fff"/>
      <path d="M49.26,12.425c.1,1.412,1.093,1.691,1.596,1.691.847.013,1.546-.658,1.568-1.504,0-1.041-.894-1.285-2.098-1.727-.738-.243-2.394-.798-2.394-2.557s1.488-2.709,2.964-2.709c1.197,0,2.725.662,2.836,2.593h-1.476c-.1-.507-.327-1.32-1.412-1.32-.741-.044-1.378.521-1.422,1.262-.001.019-.002.039-.002.058,0,.918.702,1.145,2.214,1.707,1.173.495,2.266,1.093,2.266,2.617s-1.033,2.852-3.04,2.852c-1.871,0-3.068-1.145-3.092-2.964h1.492Z" fill="#fff"/>
      <path d="M66.063,5.795h1.5v9.415h-1.5V5.795Z" fill="#fff"/>
      <path d="M87.912,12.955l-.024-7.161h1.448v9.415h-1.372l-4.923-7.181.024,7.181h-1.448V5.795h1.412l4.883,7.161Z" fill="#fff"/>
      <path d="M109.574,8.468c-.238-.342-.531-.642-.866-.89-.579-.422-1.278-.646-1.995-.638-1.89-.014-3.434,1.506-3.449,3.397,0,.047,0,.094.002.142-.09,1.89,1.369,3.496,3.259,3.587.062.003.125.004.188.004.783.014,1.549-.232,2.178-.698.556-.411.947-1.006,1.105-1.679h-4.037v-1.225h5.8c.004.724-.139,1.442-.419,2.11-.868,1.737-2.654,2.822-4.596,2.792-2.698.077-4.947-2.047-5.024-4.745-.077-2.698,2.047-4.947,4.745-5.024.093-.003.186-.003.279,0,1.934-.02,3.701,1.094,4.516,2.848l-1.687.02Z" fill="#fff"/>
      <path d="M126.073,5.795v5.876c-.057.57.063,1.144.343,1.644.32.484.868.768,1.448.75.571.03,1.115-.249,1.424-.73.296-.503.422-1.088.359-1.668v-5.872h1.488v5.876c0,1.249-.191,2.202-1.021,2.888-.613.552-1.413.849-2.238.83-.832.026-1.644-.258-2.278-.798-.926-.826-1.041-1.755-1.029-2.9v-5.896h1.504Z" fill="#fff"/>
      <path d="M146.151,5.795h1.5v8.09h3.319v1.324h-4.819V5.795Z" fill="#fff"/>
      <path d="M164.366,15.209h-1.628l3.882-9.415h1.364l3.802,9.415h-1.628l-.89-2.226h-4.037l-.866,2.226ZM167.231,7.538l-1.596,4.237h3.191l-1.596-4.237Z" fill="#fff"/>
      <path d="M184.137,5.795h2.661c1.476,0,2.238.203,2.733.551.813.587,1.281,1.539,1.249,2.541.005.638-.181,1.264-.535,1.795-.432.587-1.094.961-1.819,1.029l2.214,3.499h-1.596l-2.581-4.249h.331c.646,0,1.436-.024,1.883-.399.43-.394.666-.957.646-1.54.011-.63-.287-1.226-.798-1.596-.494-.246-1.046-.351-1.596-.303h-1.289v8.086h-1.5l-.004-9.415Z" fill="#fff"/>
    </g>
  </g>
</svg>
